<svg width="32" height="32" viewBox="0 0 32 32" fill="none" xmlns="http://www.w3.org/2000/svg">
<path d="M26.9885 6.91424C24.9675 5.98689 22.8002 5.30366 20.5341 4.91235C20.4929 4.90479 20.4517 4.92367 20.4304 4.96142C20.1517 5.45716 19.8429 6.1039 19.6267 6.61224C17.1895 6.24736 14.7647 6.24736 12.3774 6.61224C12.1612 6.0926 11.8412 5.45716 11.5612 4.96142C11.54 4.92493 11.4987 4.90605 11.4575 4.91235C9.1927 5.30241 7.02542 5.98564 5.00311 6.91424C4.9856 6.92179 4.97059 6.93438 4.96063 6.95073C0.849754 13.0923 -0.276388 19.0829 0.27606 24.9992C0.278559 25.0282 0.294807 25.0559 0.317306 25.0735C3.02955 27.0653 5.65681 28.2745 8.23529 29.076C8.27656 29.0886 8.32028 29.0735 8.34655 29.0395C8.95649 28.2066 9.50019 27.3283 9.96637 26.4047C9.99388 26.3506 9.96762 26.2864 9.91139 26.265C9.04898 25.9379 8.22779 25.539 7.43787 25.0861C7.37538 25.0496 7.37038 24.9602 7.42786 24.9174C7.59409 24.7929 7.76037 24.6632 7.91909 24.5324C7.94781 24.5085 7.98782 24.5035 8.02159 24.5185C13.2111 26.8879 18.8293 26.8879 23.9575 24.5185C23.9913 24.5022 24.0313 24.5072 24.0613 24.5311C24.22 24.662 24.3863 24.7929 24.5538 24.9174C24.6112 24.9602 24.6075 25.0496 24.545 25.0861C23.7551 25.5478 22.9339 25.9379 22.0702 26.2638C22.014 26.2852 21.989 26.3506 22.0165 26.4047C22.4927 27.327 23.0364 28.2053 23.6351 29.0382C23.6601 29.0735 23.7051 29.0886 23.7463 29.076C26.3373 28.2745 28.9646 27.0653 31.6768 25.0735C31.7006 25.0559 31.7156 25.0294 31.7181 25.0005C32.3792 18.1606 30.6106 12.2191 27.0297 6.95198C27.021 6.93438 27.006 6.92179 26.9885 6.91424ZM10.7413 21.3968C9.17894 21.3968 7.89158 19.9624 7.89158 18.2008C7.89158 16.4393 9.15398 15.0049 10.7413 15.0049C12.3411 15.0049 13.6161 16.4519 13.591 18.2008C13.591 19.9624 12.3286 21.3968 10.7413 21.3968ZM21.2778 21.3968C19.7155 21.3968 18.4281 19.9624 18.4281 18.2008C18.4281 16.4393 19.6904 15.0049 21.2778 15.0049C22.8777 15.0049 24.1525 16.4519 24.1276 18.2008C24.1276 19.9624 22.8777 21.3968 21.2778 21.3968Z" fill="black"/>
</svg>
