<svg width="32" height="32" viewBox="0 0 32 32" fill="none" xmlns="http://www.w3.org/2000/svg">
<path d="M28.0758 9.57435C28.0882 9.85595 28.0882 10.1248 28.0882 10.4064C28.1005 18.944 21.8279 28.8 10.3569 28.8C6.97365 28.8 3.65212 27.7888 0.799805 25.8944C1.29371 25.9584 1.78762 25.984 2.28153 25.984C5.08445 25.984 7.81329 25.0112 10.0235 23.2064C7.35643 23.1552 5.01037 21.3504 4.19542 18.7136C5.13384 18.9056 6.09696 18.8672 7.01069 18.5984C4.10898 18.0096 2.02223 15.36 2.00988 12.2752C2.00988 12.2496 2.00988 12.224 2.00988 12.1984C2.87422 12.6976 3.84968 12.9792 4.8375 13.0048C2.10866 11.1104 1.25667 7.33434 2.91126 4.37753C6.08461 8.42235 10.752 10.8672 15.7652 11.136C15.2589 8.89595 15.9504 6.54074 17.568 4.95354C20.0745 2.50873 24.0258 2.63673 26.3966 5.23514C27.7918 4.95354 29.1377 4.41593 30.3602 3.66073C29.891 5.15834 28.9155 6.42554 27.619 7.23194C28.8537 7.07834 30.0638 6.73274 31.1998 6.22074C30.3602 7.52634 29.2983 8.65275 28.0758 9.57435Z" fill="black"/>
</svg>
